# xmcd
#
# Track frame offsets:
#	150
#	14727
#	28237
#	43175
#	57360
#	74140
#	88652
#	105550
#	121680
#	135247
#	150032
#
# Disc length: 2196 seconds
#
# Revision: 5
# Processed by: cddbd v1.5.2PL0 Copyright (c) Steve Scherf et al.
# Submitted via: audiograbber 1.83.01
#
DISCID=8e08920b
DTITLE=Billy Currington - Billy Currington
DYEAR=2003
DGENRE=Country
TTITLE0=I Got A Feelin'
TTITLE1=That's Just Me
TTITLE2=Hangin' Around
TTITLE3=Off My Rocker
TTITLE4=Walk A Little Straighter
TTITLE5=Where The Girls Are
TTITLE6=Time With You
TTITLE7=When She Gets Close To Me
TTITLE8=Growin' Up Down There
TTITLE9=Next Time
TTITLE10=Ain't What It Used To Be
EXTD=
EXTT0=
EXTT1=
EXTT2=
EXTT3=
EXTT4=
EXTT5=
EXTT6=
EXTT7=
EXTT8=
EXTT9=
EXTT10=
PLAYORDER=
